Coordinates
version=1
nRows=12
nColumns=19
inDegrees=yes

Units are S.I. units (second, meters, Newtons, ...)
If the header above contains a line with 'inDegrees', this indicates whether rotational values are in degrees (yes) or radians (no).

endheader
time	subtalar_angle_l	subtalar_angle_r	pelvis_list	pelvis_rotation	pelvis_tilt	pelvis_tx	pelvis_ty	pelvis_tz	hip_flexion_l	hip_adduction_l	hip_rotation_l	hip_flexion_r	hip_adduction_r	hip_rotation_r	knee_flexion_l	knee_flexion_r	ankle_angle_l	ankle_angle_r
      0.00000000	     17.88679665	     19.07084396	     89.75615720	      0.26330343	     -9.79563338	     -2.04785518	     -0.85673171	      0.89041508	     23.53368271	     -1.01796352	     -2.11812481	     12.61136736	      9.28256764	      8.20172284	    -55.25904251	     -7.76815941	      5.34145114	      6.04400365
      0.01000000	     16.64193873	     19.46234910	     90.08328079	     -0.37566007	    -10.03361032	     -2.03558630	     -0.85647256	      0.89206299	     24.95403779	     -1.36306808	     -1.42319551	     11.39683743	      8.85848644	      8.77686586	    -53.45513941	     -6.60210927	      6.53987916	      5.75542610
      0.02000000	     15.46138554	     19.73186101	     90.39837012	     -1.01991757	    -10.15683021	     -2.02329517	     -0.85620375	      0.89345691	     26.12865548	     -1.68719149	     -0.77528795	     10.07837247	      8.41629734	      9.33341301	    -51.45988931	     -5.44459615	      7.40666718	      5.56175585
      0.03000000	     14.98217622	     19.97917695	     90.66915018	     -1.70686885	    -10.26749899	     -2.01107500	     -0.85594456	      0.89460007	     27.19663095	     -1.92656280	     -0.11111579	      8.78156138	      8.00035594	      9.98545388	    -49.30792504	     -4.34223655	      7.83596392	      5.51462282
      0.04000000	     13.42995303	     20.19503206	     90.93539525	     -2.32980421	    -10.26924456	     -1.99888363	     -0.85569176	      0.89545874	     28.03661774	     -2.20707796	      0.34284098	      7.44955983	      7.56007628	     10.38868700	    -46.97860883	     -3.32896095	      8.86388286	      5.18900602
      0.05000000	     13.11015982	     20.41926036	     91.13374225	     -2.99206239	    -10.22110946	     -1.98675975	     -0.85550879	      0.89603695	     28.75034325	     -2.35487103	      0.84299676	      6.10131989	      7.18265167	     10.93731516	    -44.50005951	     -2.39481741	      9.16876673	      5.15830725
      0.06000000	     12.69829385	     20.61684799	     91.30125156	     -3.64318400	    -10.15926133	     -1.97471779	     -0.85536980	      0.89636483	     29.35808909	     -2.46924244	      1.24326612	      4.81635537	      6.82471979	     11.42332899	    -41.84835345	     -1.58244990	      9.57047474	      5.05838045
      0.07000000	     11.90497890	     20.74197836	     91.43998320	     -4.28101566	    -10.11256401	     -1.96275540	     -0.85526780	      0.89646051	     29.88545970	     -2.55372303	      1.53906241	      3.65104757	      6.48809757	     11.75815459	    -39.01276736	     -0.92919777	     10.10938051	      4.76843623
      0.08000000	     11.85099764	     20.91442327	     91.51608000	     -4.93889071	    -10.12497465	     -1.95088026	     -0.85524439	      0.89634717	     30.38747292	     -2.53555944	      1.83142064	      2.59044157	      6.21198976	     12.23455991	    -36.00373111	     -0.37699918	     10.18878605	      4.76095607
      0.09000000	     11.87948919	     21.05565263	     91.55518732	     -5.58577746	    -10.11571852	     -1.93901364	     -0.85529048	      0.89599974	     30.75638269	     -2.46975291	      2.05929777	      1.56795374	      5.96839006	     12.66139871	    -32.80793723	      0.06364301	     10.24803734	      4.70927233
      0.10000000	     12.04230663	     21.18585534	     91.55505513	     -6.22662622	    -10.11734175	     -1.92713725	     -0.85540031	      0.89543053	     31.02124047	     -2.35346924	      2.24038017	      0.59837651	      5.75738954	     13.09565496	    -29.43451230	      0.41667045	     10.23199072	      4.64983360
      0.11000000	     12.75215823	     21.25890774	     91.50101902	     -6.87313145	    -10.08325147	     -1.91518760	     -0.85558370	      0.89460625	     31.14143770	     -2.15604368	      2.45334376	     -0.36977884	      5.59311303	     13.52190270	    -25.92440013	      0.67681895	      9.95815043	      4.47230532
